<?xml version="1.0" standalone="no"?>
<!DOCTYPE svg PUBLIC "-//W3C//DTD SVG 20010904//EN"
 "http://www.w3.org/TR/2001/REC-SVG-20010904/DTD/svg10.dtd">
<svg version="1.0" xmlns="http://www.w3.org/2000/svg"
 width="106.000000pt" height="106.000000pt" viewBox="0 0 106.000000 106.000000"
 preserveAspectRatio="xMidYMid meet">
<metadata>
Created by potrace 1.14, written by Peter Selinger 2001-2017
</metadata>
<g transform="translate(0.000000,106.000000) scale(0.100000,-0.100000)"
fill="#000000" stroke="none">
<path d="M350 869 c-146 -37 -262 -117 -313 -213 -33 -63 -31 -173 5 -246 72
-147 253 -233 488 -233 245 0 426 87 495 236 35 73 35 178 1 245 -50 98 -184
186 -331 217 -99 21 -253 18 -345 -6z m372 -28 c89 -23 185 -68 171 -82 -15
-15 -106 -28 -148 -20 -22 5 -60 17 -85 27 -63 26 -153 24 -207 -4 -62 -32
-144 -38 -218 -15 l-60 19 54 28 c129 66 339 86 493 47z m-58 -106 c77 -29
154 -32 222 -9 25 8 52 13 59 10 18 -6 72 -87 80 -117 5 -23 0 -26 -105 -59
l-111 -36 -85 72 c-153 132 -166 136 -245 78 -36 -26 -57 -34 -79 -32 l-31 3
38 39 c81 83 140 95 257 51z m-424 -17 c43 -13 80 -17 109 -13 l45 5 -23 -24
c-30 -32 -24 -58 17 -70 28 -8 38 -5 84 26 94 62 89 63 224 -53 115 -99 120
-105 104 -124 -18 -22 -26 -19 -75 26 -56 52 -73 43 -21 -10 64 -66 30 -110
-38 -50 -46 40 -57 32 -17 -13 23 -26 27 -38 19 -46 -18 -18 -29 -15 -60 15
-34 32 -51 23 -19 -11 16 -17 19 -25 9 -28 -25 -9 -46 3 -41 23 4 13 -6 30
-29 52 -19 17 -37 40 -41 49 -3 10 -19 20 -34 23 -15 4 -37 11 -47 17 -11 6
-49 11 -85 13 -36 1 -84 10 -105 19 -22 9 -65 23 -95 32 -31 8 -61 17 -68 19
-20 6 3 58 49 110 29 33 45 44 57 39 9 -4 45 -15 81 -26z m-63 -190 c43 -16
56 -26 68 -54 8 -19 25 -38 40 -44 14 -5 25 -14 25 -19 0 -11 94 -61 115 -61
7 0 18 -6 24 -14 14 -17 167 -21 176 -5 4 5 16 9 29 9 13 0 31 9 40 19 10 11
28 21 40 23 11 2 25 13 31 26 5 12 18 22 27 22 20 0 50 41 46 60 -3 13 86 48
160 64 30 7 32 6 32 -19 0 -38 -28 -92 -67 -132 -195 -194 -651 -194 -846 0
-39 40 -67 94 -67 132 0 26 2 27 37 20 20 -3 60 -16 90 -27z m143 -33 c9 -11
16 -13 24 -5 15 15 46 12 53 -6 3 -10 13 -14 25 -10 32 8 48 -4 48 -36 0 -22
4 -29 14 -25 20 8 49 -16 45 -38 -2 -10 -12 -23 -22 -29 -15 -9 -22 -7 -37 12
-10 12 -29 22 -44 22 -14 0 -29 6 -33 14 -4 8 -19 16 -33 18 -17 2 -26 10 -28
26 -2 16 -8 22 -18 18 -21 -8 -44 4 -44 23 0 33 28 42 50 16z"/>
</g>
</svg>
